<mxfile host="65bd71144e">
    <diagram name="Page-1" id="qP7j57cTg7n1Zwx9LT5u">
        <mxGraphModel dx="792" dy="419" grid="1" gridSize="10" guides="1" tooltips="1" connect="1" arrows="1" fold="1" page="1" pageScale="1" pageWidth="850" pageHeight="1100" math="0" shadow="0">
            <root>
                <mxCell id="0"/>
                <mxCell id="1" parent="0"/>
                <mxCell id="uvIKyArVan-KrgL2lsVN-2" value="BalloonTwister" style="swimlane;fontStyle=1;align=center;verticalAlign=top;childLayout=stackLayout;horizontal=1;startSize=26;horizontalStack=0;resizeParent=1;resizeParentMax=0;resizeLast=0;collapsible=1;marginBottom=0;whiteSpace=wrap;html=1;" parent="1" vertex="1">
                    <mxGeometry x="70" y="130" width="290" height="268" as="geometry"/>
                </mxCell>
                <mxCell id="uvIKyArVan-KrgL2lsVN-3" value="- name: str&lt;div&gt;&lt;br&gt;&lt;/div&gt;" style="text;strokeColor=none;fillColor=none;align=left;verticalAlign=top;spacingLeft=4;spacingRight=4;overflow=hidden;rotatable=0;points=[[0,0.5],[1,0.5]];portConstraint=eastwest;whiteSpace=wrap;html=1;" parent="uvIKyArVan-KrgL2lsVN-2" vertex="1">
                    <mxGeometry y="26" width="290" height="26" as="geometry"/>
                </mxCell>
                <mxCell id="uvIKyArVan-KrgL2lsVN-6" value="- availability: list[str]&lt;div&gt;&lt;br&gt;&lt;/div&gt;" style="text;strokeColor=none;fillColor=none;align=left;verticalAlign=top;spacingLeft=4;spacingRight=4;overflow=hidden;rotatable=0;points=[[0,0.5],[1,0.5]];portConstraint=eastwest;whiteSpace=wrap;html=1;" parent="uvIKyArVan-KrgL2lsVN-2" vertex="1">
                    <mxGeometry y="52" width="290" height="26" as="geometry"/>
                </mxCell>
                <mxCell id="uvIKyArVan-KrgL2lsVN-7" value="- assigned_reservations: list[Reservations]" style="text;strokeColor=none;fillColor=none;align=left;verticalAlign=top;spacingLeft=4;spacingRight=4;overflow=hidden;rotatable=0;points=[[0,0.5],[1,0.5]];portConstraint=eastwest;whiteSpace=wrap;html=1;" parent="uvIKyArVan-KrgL2lsVN-2" vertex="1">
                    <mxGeometry y="78" width="290" height="26" as="geometry"/>
                </mxCell>
                <mxCell id="uvIKyArVan-KrgL2lsVN-4" value="" style="line;strokeWidth=1;fillColor=none;align=left;verticalAlign=middle;spacingTop=-1;spacingLeft=3;spacingRight=3;rotatable=0;labelPosition=right;points=[];portConstraint=eastwest;strokeColor=inherit;" parent="uvIKyArVan-KrgL2lsVN-2" vertex="1">
                    <mxGeometry y="104" width="290" height="8" as="geometry"/>
                </mxCell>
                <mxCell id="uvIKyArVan-KrgL2lsVN-31" value="+ __init__(name, availability): None" style="text;strokeColor=none;fillColor=none;align=left;verticalAlign=top;spacingLeft=4;spacingRight=4;overflow=hidden;rotatable=0;points=[[0,0.5],[1,0.5]];portConstraint=eastwest;whiteSpace=wrap;html=1;" parent="uvIKyArVan-KrgL2lsVN-2" vertex="1">
                    <mxGeometry y="112" width="290" height="26" as="geometry"/>
                </mxCell>
                <mxCell id="uvIKyArVan-KrgL2lsVN-30" value="+ __str__(): str" style="text;strokeColor=none;fillColor=none;align=left;verticalAlign=top;spacingLeft=4;spacingRight=4;overflow=hidden;rotatable=0;points=[[0,0.5],[1,0.5]];portConstraint=eastwest;whiteSpace=wrap;html=1;" parent="uvIKyArVan-KrgL2lsVN-2" vertex="1">
                    <mxGeometry y="138" width="290" height="26" as="geometry"/>
                </mxCell>
                <mxCell id="uvIKyArVan-KrgL2lsVN-8" value="+ add_availability(date): None" style="text;strokeColor=none;fillColor=none;align=left;verticalAlign=top;spacingLeft=4;spacingRight=4;overflow=hidden;rotatable=0;points=[[0,0.5],[1,0.5]];portConstraint=eastwest;whiteSpace=wrap;html=1;" parent="uvIKyArVan-KrgL2lsVN-2" vertex="1">
                    <mxGeometry y="164" width="290" height="26" as="geometry"/>
                </mxCell>
                <mxCell id="uvIKyArVan-KrgL2lsVN-9" value="+ assign_reservation(reservation): None" style="text;strokeColor=none;fillColor=none;align=left;verticalAlign=top;spacingLeft=4;spacingRight=4;overflow=hidden;rotatable=0;points=[[0,0.5],[1,0.5]];portConstraint=eastwest;whiteSpace=wrap;html=1;" parent="uvIKyArVan-KrgL2lsVN-2" vertex="1">
                    <mxGeometry y="190" width="290" height="26" as="geometry"/>
                </mxCell>
                <mxCell id="uvIKyArVan-KrgL2lsVN-10" value="+ remove_availability(date): None" style="text;strokeColor=none;fillColor=none;align=left;verticalAlign=top;spacingLeft=4;spacingRight=4;overflow=hidden;rotatable=0;points=[[0,0.5],[1,0.5]];portConstraint=eastwest;whiteSpace=wrap;html=1;" parent="uvIKyArVan-KrgL2lsVN-2" vertex="1">
                    <mxGeometry y="216" width="290" height="26" as="geometry"/>
                </mxCell>
                <mxCell id="uvIKyArVan-KrgL2lsVN-5" value="+ remove_reservation(reservation): None" style="text;strokeColor=none;fillColor=none;align=left;verticalAlign=top;spacingLeft=4;spacingRight=4;overflow=hidden;rotatable=0;points=[[0,0.5],[1,0.5]];portConstraint=eastwest;whiteSpace=wrap;html=1;" parent="uvIKyArVan-KrgL2lsVN-2" vertex="1">
                    <mxGeometry y="242" width="290" height="26" as="geometry"/>
                </mxCell>
                <mxCell id="uvIKyArVan-KrgL2lsVN-11" value="Holidays" style="swimlane;fontStyle=1;align=center;verticalAlign=top;childLayout=stackLayout;horizontal=1;startSize=26;horizontalStack=0;resizeParent=1;resizeParentMax=0;resizeLast=0;collapsible=1;marginBottom=0;whiteSpace=wrap;html=1;" parent="1" vertex="1">
                    <mxGeometry x="950" y="150" width="220" height="138" as="geometry"/>
                </mxCell>
                <mxCell id="uvIKyArVan-KrgL2lsVN-12" value="- date: str" style="text;strokeColor=none;fillColor=none;align=left;verticalAlign=top;spacingLeft=4;spacingRight=4;overflow=hidden;rotatable=0;points=[[0,0.5],[1,0.5]];portConstraint=eastwest;whiteSpace=wrap;html=1;" parent="uvIKyArVan-KrgL2lsVN-11" vertex="1">
                    <mxGeometry y="26" width="220" height="26" as="geometry"/>
                </mxCell>
                <mxCell id="uvIKyArVan-KrgL2lsVN-15" value="- occasion: str" style="text;strokeColor=none;fillColor=none;align=left;verticalAlign=top;spacingLeft=4;spacingRight=4;overflow=hidden;rotatable=0;points=[[0,0.5],[1,0.5]];portConstraint=eastwest;whiteSpace=wrap;html=1;" parent="uvIKyArVan-KrgL2lsVN-11" vertex="1">
                    <mxGeometry y="52" width="220" height="26" as="geometry"/>
                </mxCell>
                <mxCell id="uvIKyArVan-KrgL2lsVN-13" value="" style="line;strokeWidth=1;fillColor=none;align=left;verticalAlign=middle;spacingTop=-1;spacingLeft=3;spacingRight=3;rotatable=0;labelPosition=right;points=[];portConstraint=eastwest;strokeColor=inherit;" parent="uvIKyArVan-KrgL2lsVN-11" vertex="1">
                    <mxGeometry y="78" width="220" height="8" as="geometry"/>
                </mxCell>
                <mxCell id="uvIKyArVan-KrgL2lsVN-29" value="+ __init__(date, occasion): None" style="text;strokeColor=none;fillColor=none;align=left;verticalAlign=top;spacingLeft=4;spacingRight=4;overflow=hidden;rotatable=0;points=[[0,0.5],[1,0.5]];portConstraint=eastwest;whiteSpace=wrap;html=1;" parent="uvIKyArVan-KrgL2lsVN-11" vertex="1">
                    <mxGeometry y="86" width="220" height="26" as="geometry"/>
                </mxCell>
                <mxCell id="uvIKyArVan-KrgL2lsVN-14" value="+ __str__(): str" style="text;strokeColor=none;fillColor=none;align=left;verticalAlign=top;spacingLeft=4;spacingRight=4;overflow=hidden;rotatable=0;points=[[0,0.5],[1,0.5]];portConstraint=eastwest;whiteSpace=wrap;html=1;" parent="uvIKyArVan-KrgL2lsVN-11" vertex="1">
                    <mxGeometry y="112" width="220" height="26" as="geometry"/>
                </mxCell>
                <mxCell id="uvIKyArVan-KrgL2lsVN-16" value="Reservations" style="swimlane;fontStyle=1;align=center;verticalAlign=top;childLayout=stackLayout;horizontal=1;startSize=26;horizontalStack=0;resizeParent=1;resizeParentMax=0;resizeLast=0;collapsible=1;marginBottom=0;whiteSpace=wrap;html=1;" parent="1" vertex="1">
                    <mxGeometry x="558.5" y="110" width="240" height="320" as="geometry"/>
                </mxCell>
                <mxCell id="uvIKyArVan-KrgL2lsVN-17" value="- customer_name: str" style="text;strokeColor=none;fillColor=none;align=left;verticalAlign=top;spacingLeft=4;spacingRight=4;overflow=hidden;rotatable=0;points=[[0,0.5],[1,0.5]];portConstraint=eastwest;whiteSpace=wrap;html=1;" parent="uvIKyArVan-KrgL2lsVN-16" vertex="1">
                    <mxGeometry y="26" width="240" height="26" as="geometry"/>
                </mxCell>
                <mxCell id="2" value="- date: str" style="text;strokeColor=none;fillColor=none;align=left;verticalAlign=top;spacingLeft=4;spacingRight=4;overflow=hidden;rotatable=0;points=[[0,0.5],[1,0.5]];portConstraint=eastwest;whiteSpace=wrap;html=1;" vertex="1" parent="uvIKyArVan-KrgL2lsVN-16">
                    <mxGeometry y="52" width="240" height="26" as="geometry"/>
                </mxCell>
                <mxCell id="uvIKyArVan-KrgL2lsVN-21" value="- email: str" style="text;strokeColor=none;fillColor=none;align=left;verticalAlign=top;spacingLeft=4;spacingRight=4;overflow=hidden;rotatable=0;points=[[0,0.5],[1,0.5]];portConstraint=eastwest;whiteSpace=wrap;html=1;" parent="uvIKyArVan-KrgL2lsVN-16" vertex="1">
                    <mxGeometry y="78" width="240" height="26" as="geometry"/>
                </mxCell>
                <mxCell id="uvIKyArVan-KrgL2lsVN-22" value="- status: 'Waiting'" style="text;strokeColor=none;fillColor=none;align=left;verticalAlign=top;spacingLeft=4;spacingRight=4;overflow=hidden;rotatable=0;points=[[0,0.5],[1,0.5]];portConstraint=eastwest;whiteSpace=wrap;html=1;" parent="uvIKyArVan-KrgL2lsVN-16" vertex="1">
                    <mxGeometry y="104" width="240" height="26" as="geometry"/>
                </mxCell>
                <mxCell id="uvIKyArVan-KrgL2lsVN-23" value="- priority: Optional[int]" style="text;strokeColor=none;fillColor=none;align=left;verticalAlign=top;spacingLeft=4;spacingRight=4;overflow=hidden;rotatable=0;points=[[0,0.5],[1,0.5]];portConstraint=eastwest;whiteSpace=wrap;html=1;" parent="uvIKyArVan-KrgL2lsVN-16" vertex="1">
                    <mxGeometry y="130" width="240" height="26" as="geometry"/>
                </mxCell>
                <mxCell id="uvIKyArVan-KrgL2lsVN-24" value="- assigned_twister: Optional[str]" style="text;strokeColor=none;fillColor=none;align=left;verticalAlign=top;spacingLeft=4;spacingRight=4;overflow=hidden;rotatable=0;points=[[0,0.5],[1,0.5]];portConstraint=eastwest;whiteSpace=wrap;html=1;" parent="uvIKyArVan-KrgL2lsVN-16" vertex="1">
                    <mxGeometry y="156" width="240" height="26" as="geometry"/>
                </mxCell>
                <mxCell id="uvIKyArVan-KrgL2lsVN-18" value="" style="line;strokeWidth=1;fillColor=none;align=left;verticalAlign=middle;spacingTop=-1;spacingLeft=3;spacingRight=3;rotatable=0;labelPosition=right;points=[];portConstraint=eastwest;strokeColor=inherit;" parent="uvIKyArVan-KrgL2lsVN-16" vertex="1">
                    <mxGeometry y="182" width="240" height="8" as="geometry"/>
                </mxCell>
                <mxCell id="uvIKyArVan-KrgL2lsVN-28" value="+ __init__(customer_name, date): None" style="text;strokeColor=none;fillColor=none;align=left;verticalAlign=top;spacingLeft=4;spacingRight=4;overflow=hidden;rotatable=0;points=[[0,0.5],[1,0.5]];portConstraint=eastwest;whiteSpace=wrap;html=1;" parent="uvIKyArVan-KrgL2lsVN-16" vertex="1">
                    <mxGeometry y="190" width="240" height="26" as="geometry"/>
                </mxCell>
                <mxCell id="uvIKyArVan-KrgL2lsVN-26" value="+ __str__(): str" style="text;strokeColor=none;fillColor=none;align=left;verticalAlign=top;spacingLeft=4;spacingRight=4;overflow=hidden;rotatable=0;points=[[0,0.5],[1,0.5]];portConstraint=eastwest;whiteSpace=wrap;html=1;" parent="uvIKyArVan-KrgL2lsVN-16" vertex="1">
                    <mxGeometry y="216" width="240" height="26" as="geometry"/>
                </mxCell>
                <mxCell id="uvIKyArVan-KrgL2lsVN-19" value="+ assign_twister(twister_name): None" style="text;strokeColor=none;fillColor=none;align=left;verticalAlign=top;spacingLeft=4;spacingRight=4;overflow=hidden;rotatable=0;points=[[0,0.5],[1,0.5]];portConstraint=eastwest;whiteSpace=wrap;html=1;" parent="uvIKyArVan-KrgL2lsVN-16" vertex="1">
                    <mxGeometry y="242" width="240" height="26" as="geometry"/>
                </mxCell>
                <mxCell id="uvIKyArVan-KrgL2lsVN-25" value="+ cancel: None" style="text;strokeColor=none;fillColor=none;align=left;verticalAlign=top;spacingLeft=4;spacingRight=4;overflow=hidden;rotatable=0;points=[[0,0.5],[1,0.5]];portConstraint=eastwest;whiteSpace=wrap;html=1;" parent="uvIKyArVan-KrgL2lsVN-16" vertex="1">
                    <mxGeometry y="268" width="240" height="26" as="geometry"/>
                </mxCell>
                <mxCell id="uvIKyArVan-KrgL2lsVN-27" value="+ get_assigned_twister: optional[str]" style="text;strokeColor=none;fillColor=none;align=left;verticalAlign=top;spacingLeft=4;spacingRight=4;overflow=hidden;rotatable=0;points=[[0,0.5],[1,0.5]];portConstraint=eastwest;whiteSpace=wrap;html=1;" parent="uvIKyArVan-KrgL2lsVN-16" vertex="1">
                    <mxGeometry y="294" width="240" height="26" as="geometry"/>
                </mxCell>
                <mxCell id="uvIKyArVan-KrgL2lsVN-32" value="Scheduler" style="swimlane;fontStyle=1;align=center;verticalAlign=top;childLayout=stackLayout;horizontal=1;startSize=26;horizontalStack=0;resizeParent=1;resizeParentMax=0;resizeLast=0;collapsible=1;marginBottom=0;whiteSpace=wrap;html=1;" parent="1" vertex="1">
                    <mxGeometry x="470" y="910" width="411.5" height="424" as="geometry"/>
                </mxCell>
                <mxCell id="uvIKyArVan-KrgL2lsVN-48" value="&lt;span style=&quot;background-color: rgb(255, 255, 255);&quot;&gt;- repository: DataRepository()&lt;/span&gt;" style="text;strokeColor=none;fillColor=none;align=left;verticalAlign=top;spacingLeft=4;spacingRight=4;overflow=hidden;rotatable=0;points=[[0,0.5],[1,0.5]];portConstraint=eastwest;whiteSpace=wrap;html=1;" parent="uvIKyArVan-KrgL2lsVN-32" vertex="1">
                    <mxGeometry y="26" width="411.5" height="26" as="geometry"/>
                </mxCell>
                <mxCell id="uvIKyArVan-KrgL2lsVN-33" value="&lt;span style=&quot;background-color: rgb(255, 255, 255);&quot;&gt;- waiting_list: dict[str, list[Reservations]]&lt;/span&gt;" style="text;strokeColor=none;fillColor=none;align=left;verticalAlign=top;spacingLeft=4;spacingRight=4;overflow=hidden;rotatable=0;points=[[0,0.5],[1,0.5]];portConstraint=eastwest;whiteSpace=wrap;html=1;" parent="uvIKyArVan-KrgL2lsVN-32" vertex="1">
                    <mxGeometry y="52" width="411.5" height="26" as="geometry"/>
                </mxCell>
                <mxCell id="uvIKyArVan-KrgL2lsVN-34" value="" style="line;strokeWidth=1;fillColor=none;align=left;verticalAlign=middle;spacingTop=-1;spacingLeft=3;spacingRight=3;rotatable=0;labelPosition=right;points=[];portConstraint=eastwest;strokeColor=inherit;" parent="uvIKyArVan-KrgL2lsVN-32" vertex="1">
                    <mxGeometry y="78" width="411.5" height="8" as="geometry"/>
                </mxCell>
                <mxCell id="uvIKyArVan-KrgL2lsVN-49" value="+ __load_waiting_list(): dict[str, list[Reservations]]" style="text;strokeColor=none;fillColor=none;align=left;verticalAlign=top;spacingLeft=4;spacingRight=4;overflow=hidden;rotatable=0;points=[[0,0.5],[1,0.5]];portConstraint=eastwest;whiteSpace=wrap;html=1;" parent="uvIKyArVan-KrgL2lsVN-32" vertex="1">
                    <mxGeometry y="86" width="411.5" height="26" as="geometry"/>
                </mxCell>
                <mxCell id="uvIKyArVan-KrgL2lsVN-50" value="+ add_balloon_twister(name, availability): None" style="text;strokeColor=none;fillColor=none;align=left;verticalAlign=top;spacingLeft=4;spacingRight=4;overflow=hidden;rotatable=0;points=[[0,0.5],[1,0.5]];portConstraint=eastwest;whiteSpace=wrap;html=1;" parent="uvIKyArVan-KrgL2lsVN-32" vertex="1">
                    <mxGeometry y="112" width="411.5" height="26" as="geometry"/>
                </mxCell>
                <mxCell id="uvIKyArVan-KrgL2lsVN-51" value="+ add_holiday(occasion, date): None" style="text;strokeColor=none;fillColor=none;align=left;verticalAlign=top;spacingLeft=4;spacingRight=4;overflow=hidden;rotatable=0;points=[[0,0.5],[1,0.5]];portConstraint=eastwest;whiteSpace=wrap;html=1;" parent="uvIKyArVan-KrgL2lsVN-32" vertex="1">
                    <mxGeometry y="138" width="411.5" height="26" as="geometry"/>
                </mxCell>
                <mxCell id="uvIKyArVan-KrgL2lsVN-52" value="+ make_reservation(customer_name, date): str" style="text;strokeColor=none;fillColor=none;align=left;verticalAlign=top;spacingLeft=4;spacingRight=4;overflow=hidden;rotatable=0;points=[[0,0.5],[1,0.5]];portConstraint=eastwest;whiteSpace=wrap;html=1;" parent="uvIKyArVan-KrgL2lsVN-32" vertex="1">
                    <mxGeometry y="164" width="411.5" height="26" as="geometry"/>
                </mxCell>
                <mxCell id="uvIKyArVan-KrgL2lsVN-53" value="+ cancel_reservation(customer_name, date): None" style="text;strokeColor=none;fillColor=none;align=left;verticalAlign=top;spacingLeft=4;spacingRight=4;overflow=hidden;rotatable=0;points=[[0,0.5],[1,0.5]];portConstraint=eastwest;whiteSpace=wrap;html=1;" parent="uvIKyArVan-KrgL2lsVN-32" vertex="1">
                    <mxGeometry y="190" width="411.5" height="26" as="geometry"/>
                </mxCell>
                <mxCell id="uvIKyArVan-KrgL2lsVN-54" value="+ assign_twister_to_reservation(reservation): None" style="text;strokeColor=none;fillColor=none;align=left;verticalAlign=top;spacingLeft=4;spacingRight=4;overflow=hidden;rotatable=0;points=[[0,0.5],[1,0.5]];portConstraint=eastwest;whiteSpace=wrap;html=1;" parent="uvIKyArVan-KrgL2lsVN-32" vertex="1">
                    <mxGeometry y="216" width="411.5" height="26" as="geometry"/>
                </mxCell>
                <mxCell id="uvIKyArVan-KrgL2lsVN-55" value="+ is_holiday(date): bool" style="text;strokeColor=none;fillColor=none;align=left;verticalAlign=top;spacingLeft=4;spacingRight=4;overflow=hidden;rotatable=0;points=[[0,0.5],[1,0.5]];portConstraint=eastwest;whiteSpace=wrap;html=1;" parent="uvIKyArVan-KrgL2lsVN-32" vertex="1">
                    <mxGeometry y="242" width="411.5" height="26" as="geometry"/>
                </mxCell>
                <mxCell id="uvIKyArVan-KrgL2lsVN-56" value="+ __find_reservation(customer_name, date): Optional[Reservations]" style="text;strokeColor=none;fillColor=none;align=left;verticalAlign=top;spacingLeft=4;spacingRight=4;overflow=hidden;rotatable=0;points=[[0,0.5],[1,0.5]];portConstraint=eastwest;whiteSpace=wrap;html=1;" parent="uvIKyArVan-KrgL2lsVN-32" vertex="1">
                    <mxGeometry y="268" width="411.5" height="26" as="geometry"/>
                </mxCell>
                <mxCell id="uvIKyArVan-KrgL2lsVN-57" value="+ __update_waiting_list(): None" style="text;strokeColor=none;fillColor=none;align=left;verticalAlign=top;spacingLeft=4;spacingRight=4;overflow=hidden;rotatable=0;points=[[0,0.5],[1,0.5]];portConstraint=eastwest;whiteSpace=wrap;html=1;" parent="uvIKyArVan-KrgL2lsVN-32" vertex="1">
                    <mxGeometry y="294" width="411.5" height="26" as="geometry"/>
                </mxCell>
                <mxCell id="uvIKyArVan-KrgL2lsVN-58" value="+ __remove_from_waiting_list(reservation): None" style="text;strokeColor=none;fillColor=none;align=left;verticalAlign=top;spacingLeft=4;spacingRight=4;overflow=hidden;rotatable=0;points=[[0,0.5],[1,0.5]];portConstraint=eastwest;whiteSpace=wrap;html=1;" parent="uvIKyArVan-KrgL2lsVN-32" vertex="1">
                    <mxGeometry y="320" width="411.5" height="26" as="geometry"/>
                </mxCell>
                <mxCell id="uvIKyArVan-KrgL2lsVN-59" value="+ __update_twister_availability(reservation): None" style="text;strokeColor=none;fillColor=none;align=left;verticalAlign=top;spacingLeft=4;spacingRight=4;overflow=hidden;rotatable=0;points=[[0,0.5],[1,0.5]];portConstraint=eastwest;whiteSpace=wrap;html=1;" parent="uvIKyArVan-KrgL2lsVN-32" vertex="1">
                    <mxGeometry y="346" width="411.5" height="26" as="geometry"/>
                </mxCell>
                <mxCell id="uvIKyArVan-KrgL2lsVN-60" value="+ view_reservations(): None" style="text;strokeColor=none;fillColor=none;align=left;verticalAlign=top;spacingLeft=4;spacingRight=4;overflow=hidden;rotatable=0;points=[[0,0.5],[1,0.5]];portConstraint=eastwest;whiteSpace=wrap;html=1;" parent="uvIKyArVan-KrgL2lsVN-32" vertex="1">
                    <mxGeometry y="372" width="411.5" height="26" as="geometry"/>
                </mxCell>
                <mxCell id="uvIKyArVan-KrgL2lsVN-35" value="+ view_holidays(): None" style="text;strokeColor=none;fillColor=none;align=left;verticalAlign=top;spacingLeft=4;spacingRight=4;overflow=hidden;rotatable=0;points=[[0,0.5],[1,0.5]];portConstraint=eastwest;whiteSpace=wrap;html=1;" parent="uvIKyArVan-KrgL2lsVN-32" vertex="1">
                    <mxGeometry y="398" width="411.5" height="26" as="geometry"/>
                </mxCell>
                <mxCell id="uvIKyArVan-KrgL2lsVN-40" value="DataRepository" style="swimlane;fontStyle=1;align=center;verticalAlign=top;childLayout=stackLayout;horizontal=1;startSize=26;horizontalStack=0;resizeParent=1;resizeParentMax=0;resizeLast=0;collapsible=1;marginBottom=0;whiteSpace=wrap;html=1;" parent="1" vertex="1">
                    <mxGeometry x="440" y="590" width="477" height="190" as="geometry"/>
                </mxCell>
                <mxCell id="uvIKyArVan-KrgL2lsVN-41" value="- twister_filename: str" style="text;strokeColor=none;fillColor=none;align=left;verticalAlign=top;spacingLeft=4;spacingRight=4;overflow=hidden;rotatable=0;points=[[0,0.5],[1,0.5]];portConstraint=eastwest;whiteSpace=wrap;html=1;" parent="uvIKyArVan-KrgL2lsVN-40" vertex="1">
                    <mxGeometry y="26" width="477" height="26" as="geometry"/>
                </mxCell>
                <mxCell id="uvIKyArVan-KrgL2lsVN-42" value="- holidays_filename: str" style="text;strokeColor=none;fillColor=none;align=left;verticalAlign=top;spacingLeft=4;spacingRight=4;overflow=hidden;rotatable=0;points=[[0,0.5],[1,0.5]];portConstraint=eastwest;whiteSpace=wrap;html=1;" parent="uvIKyArVan-KrgL2lsVN-40" vertex="1">
                    <mxGeometry y="52" width="477" height="26" as="geometry"/>
                </mxCell>
                <mxCell id="uvIKyArVan-KrgL2lsVN-43" value="- reservations_filename: str" style="text;strokeColor=none;fillColor=none;align=left;verticalAlign=top;spacingLeft=4;spacingRight=4;overflow=hidden;rotatable=0;points=[[0,0.5],[1,0.5]];portConstraint=eastwest;whiteSpace=wrap;html=1;" parent="uvIKyArVan-KrgL2lsVN-40" vertex="1">
                    <mxGeometry y="78" width="477" height="26" as="geometry"/>
                </mxCell>
                <mxCell id="uvIKyArVan-KrgL2lsVN-44" value="" style="line;strokeWidth=1;fillColor=none;align=left;verticalAlign=middle;spacingTop=-1;spacingLeft=3;spacingRight=3;rotatable=0;labelPosition=right;points=[];portConstraint=eastwest;strokeColor=inherit;" parent="uvIKyArVan-KrgL2lsVN-40" vertex="1">
                    <mxGeometry y="104" width="477" height="8" as="geometry"/>
                </mxCell>
                <mxCell id="uvIKyArVan-KrgL2lsVN-45" value="__init__(twister_filename, holidays_filename, reservations_filename) -&amp;gt; None" style="text;strokeColor=none;fillColor=none;align=left;verticalAlign=top;spacingLeft=4;spacingRight=4;overflow=hidden;rotatable=0;points=[[0,0.5],[1,0.5]];portConstraint=eastwest;whiteSpace=wrap;html=1;" parent="uvIKyArVan-KrgL2lsVN-40" vertex="1">
                    <mxGeometry y="112" width="477" height="26" as="geometry"/>
                </mxCell>
                <mxCell id="uvIKyArVan-KrgL2lsVN-46" value="+ read_data(): tuple(list[balloonTwister], list[Holidays], list[Reservations])" style="text;strokeColor=none;fillColor=none;align=left;verticalAlign=top;spacingLeft=4;spacingRight=4;overflow=hidden;rotatable=0;points=[[0,0.5],[1,0.5]];portConstraint=eastwest;whiteSpace=wrap;html=1;" parent="uvIKyArVan-KrgL2lsVN-40" vertex="1">
                    <mxGeometry y="138" width="477" height="26" as="geometry"/>
                </mxCell>
                <mxCell id="uvIKyArVan-KrgL2lsVN-47" value="+ write_data(balloon_twister, holidays, reservations): None" style="text;strokeColor=none;fillColor=none;align=left;verticalAlign=top;spacingLeft=4;spacingRight=4;overflow=hidden;rotatable=0;points=[[0,0.5],[1,0.5]];portConstraint=eastwest;whiteSpace=wrap;html=1;" parent="uvIKyArVan-KrgL2lsVN-40" vertex="1">
                    <mxGeometry y="164" width="477" height="26" as="geometry"/>
                </mxCell>
                <mxCell id="uvIKyArVan-KrgL2lsVN-61" value="" style="endArrow=diamondThin;endFill=0;endSize=24;html=1;rounded=0;entryX=1;entryY=0.5;entryDx=0;entryDy=0;exitX=0;exitY=0.5;exitDx=0;exitDy=0;" parent="1" source="uvIKyArVan-KrgL2lsVN-24" target="uvIKyArVan-KrgL2lsVN-30" edge="1">
                    <mxGeometry width="160" relative="1" as="geometry">
                        <mxPoint x="510" y="410" as="sourcePoint"/>
                        <mxPoint x="670" y="410" as="targetPoint"/>
                    </mxGeometry>
                </mxCell>
                <mxCell id="uvIKyArVan-KrgL2lsVN-63" value="" style="endArrow=classic;html=1;rounded=0;entryX=0.5;entryY=0;entryDx=0;entryDy=0;" parent="1" target="uvIKyArVan-KrgL2lsVN-40" edge="1">
                    <mxGeometry width="50" height="50" relative="1" as="geometry">
                        <mxPoint x="190" y="400" as="sourcePoint"/>
                        <mxPoint x="620" y="390" as="targetPoint"/>
                    </mxGeometry>
                </mxCell>
                <mxCell id="uvIKyArVan-KrgL2lsVN-64" value="" style="endArrow=classic;html=1;rounded=0;exitX=0.492;exitY=1.038;exitDx=0;exitDy=0;exitPerimeter=0;entryX=0.5;entryY=0;entryDx=0;entryDy=0;" parent="1" source="uvIKyArVan-KrgL2lsVN-27" target="uvIKyArVan-KrgL2lsVN-40" edge="1">
                    <mxGeometry width="50" height="50" relative="1" as="geometry">
                        <mxPoint x="570" y="440" as="sourcePoint"/>
                        <mxPoint x="620" y="390" as="targetPoint"/>
                    </mxGeometry>
                </mxCell>
                <mxCell id="uvIKyArVan-KrgL2lsVN-65" value="" style="endArrow=classic;html=1;rounded=0;exitX=0.486;exitY=1.154;exitDx=0;exitDy=0;exitPerimeter=0;" parent="1" source="uvIKyArVan-KrgL2lsVN-14" edge="1">
                    <mxGeometry width="50" height="50" relative="1" as="geometry">
                        <mxPoint x="570" y="440" as="sourcePoint"/>
                        <mxPoint x="680" y="590" as="targetPoint"/>
                    </mxGeometry>
                </mxCell>
                <mxCell id="uvIKyArVan-KrgL2lsVN-66" value="TwisterSchedulerApp" style="swimlane;fontStyle=1;align=center;verticalAlign=top;childLayout=stackLayout;horizontal=1;startSize=26;horizontalStack=0;resizeParent=1;resizeParentMax=0;resizeLast=0;collapsible=1;marginBottom=0;whiteSpace=wrap;html=1;" parent="1" vertex="1">
                    <mxGeometry x="590" y="1480" width="160" height="104" as="geometry"/>
                </mxCell>
                <mxCell id="uvIKyArVan-KrgL2lsVN-67" value="+ __init__(): None" style="text;strokeColor=none;fillColor=none;align=left;verticalAlign=top;spacingLeft=4;spacingRight=4;overflow=hidden;rotatable=0;points=[[0,0.5],[1,0.5]];portConstraint=eastwest;whiteSpace=wrap;html=1;" parent="uvIKyArVan-KrgL2lsVN-66" vertex="1">
                    <mxGeometry y="26" width="160" height="26" as="geometry"/>
                </mxCell>
                <mxCell id="uvIKyArVan-KrgL2lsVN-68" value="+ show_menu(): None" style="text;strokeColor=none;fillColor=none;align=left;verticalAlign=top;spacingLeft=4;spacingRight=4;overflow=hidden;rotatable=0;points=[[0,0.5],[1,0.5]];portConstraint=eastwest;whiteSpace=wrap;html=1;" parent="uvIKyArVan-KrgL2lsVN-66" vertex="1">
                    <mxGeometry y="52" width="160" height="26" as="geometry"/>
                </mxCell>
                <mxCell id="uvIKyArVan-KrgL2lsVN-69" value="+ main(): None" style="text;strokeColor=none;fillColor=none;align=left;verticalAlign=top;spacingLeft=4;spacingRight=4;overflow=hidden;rotatable=0;points=[[0,0.5],[1,0.5]];portConstraint=eastwest;whiteSpace=wrap;html=1;" parent="uvIKyArVan-KrgL2lsVN-66" vertex="1">
                    <mxGeometry y="78" width="160" height="26" as="geometry"/>
                </mxCell>
                <mxCell id="uvIKyArVan-KrgL2lsVN-70" value="" style="endArrow=classic;html=1;rounded=0;exitX=0.495;exitY=0.962;exitDx=0;exitDy=0;exitPerimeter=0;entryX=0.5;entryY=0;entryDx=0;entryDy=0;" parent="1" source="uvIKyArVan-KrgL2lsVN-47" target="uvIKyArVan-KrgL2lsVN-32" edge="1">
                    <mxGeometry width="50" height="50" relative="1" as="geometry">
                        <mxPoint x="570" y="920" as="sourcePoint"/>
                        <mxPoint x="620" y="870" as="targetPoint"/>
                    </mxGeometry>
                </mxCell>
                <mxCell id="uvIKyArVan-KrgL2lsVN-71" value="" style="endArrow=classic;html=1;rounded=0;entryX=0.5;entryY=0;entryDx=0;entryDy=0;exitX=0.484;exitY=1.077;exitDx=0;exitDy=0;exitPerimeter=0;" parent="1" source="uvIKyArVan-KrgL2lsVN-35" target="uvIKyArVan-KrgL2lsVN-66" edge="1">
                    <mxGeometry width="50" height="50" relative="1" as="geometry">
                        <mxPoint x="570" y="1520" as="sourcePoint"/>
                        <mxPoint x="620" y="1470" as="targetPoint"/>
                    </mxGeometry>
                </mxCell>
            </root>
        </mxGraphModel>
    </diagram>
</mxfile>